<svg xmlns="http://www.w3.org/2000/svg" viewBox="0 0 124 124"><path fill="#333033" d="M102.4 70.7v28.5c0 .7-.6 1.3-1.3 1.3H86.4c-.7 0-1.3-.6-1.3-1.3V72.7c0-7-2.5-11.8-8.8-11.8-4.8 0-7.6 3.2-8.9 6.3-.5 1.1-.6 2.7-.6 4.2v27.8c0 .7-.6 1.3-1.3 1.3H50.9c-.7 0-1.3-.6-1.3-1.3 0-7.1.2-41.4 0-49.4 0-.7.6-1.3 1.3-1.3h14.7c.7 0 1.3.6 1.3 1.3v6.1c0 .1-.1.1-.1.2h.1v-.2c2.3-3.5 6.4-8.6 15.6-8.6 11.4 0 19.9 7.5 19.9 23.4zM24 100.6h14.7c.7 0 1.3-.6 1.3-1.3V49.8c0-.7-.6-1.3-1.3-1.3H24c-.7 0-1.3.6-1.3 1.3v49.5c.1.7.6 1.3 1.3 1.3z"/><circle cx="30.9" cy="32.7" r="9.3" fill="#333033"/></svg>